{"title":"Ballers S01E06 1080p HDTV DD5 1 x264-DTG","uid":12178925,"size":1996908952,"categoryP":"video","categoryS":"hd___tv_shows","magnet":"?xt=urn:btih:d158f15456e6192d41c2941a93e3b9803f852aa2&amp;dn=Ballers+S01E06+1080p+HDTV+DD5+1+x264-DTG&amp;tr=udp%3A%2F%2Ftracker.openbittorrent.com%3A80&amp;tr=udp%3A%2F%2Fopen.demonii.com%3A1337&amp;tr=udp%3A%2F%2Ftracker.coppersurfer.tk%3A6969&amp;tr=udp%3A%2F%2Fexodus.desync.com%3A6969","seeders":0,"leechers":1,"uploader":"D3tergent","files":1,"time":1438373284,"description":"Ballers - S01E06 - Everything Is Everything\n\n\nVideo : H.264, 1920x1078\nAudio : AC3, 5.1, 384 kb/s\nSubtitles : English\n\nSource : Ballers S01E06 1080i HDTV MPEG2 DD5.1-CtrlHD\n\n\nFormat : Matroska\nFormat version : Version 4 / Version 2\nFile size : 1.86 GiB\nDuration : 27mn 28s\nOverall bit rate : 9 693 Kbps\nEncoded date : UTC 2015-07-31 17:59:17\nWriting application : mkvmerge v8.2.0 ('World of Adventure') 64bit\nWriting library : Lavf56.36.100\nDURATION : 00:25:08.254000000\nNUMBER_OF_FRAMES : 580\nNUMBER_OF_BYTES : 21084\n_STATISTICS_WRITING_APP : mkvmerge v8.2.0 ('World of Adventure') 64bit\n_STATISTICS_WRITING_DATE_UTC : 2015-07-31 17:59:17\n_STATISTICS_TAGS : BPS DURATION NUMBER_OF_FRAMES NUMBER_OF_BYTES\n\nVideo\nID : 1\nFormat : AVC\nFormat/Info : Advanced Video Codec\nFormat profile : &lt;a class=&quot;__cf_email__&quot; href=&quot;/cdn-cgi/l/email-protection&quot; data-cfemail=&quot;2b63424c436b671f051a&quot;&gt;[email&amp;#160;protected]&lt;/a&gt;&lt;script data-cfhash='f9e31' type=&quot;text/javascript&quot;&gt;\n/* &lt;![CDATA[ */!function(){try{var t=&quot;currentScript&quot;in document?document.currentScript:function(){for(var t=document.getElementsByTagName(&quot;script&quot;),e=t.length;e--;)if(t[e].getAttribute(&quot;data-cfhash&quot;))return t[e]}();if(t&amp;&amp;t.previousSibling){var e,r,n,i,c=t.previousSibling,a=c.getAttribute(&quot;data-cfemail&quot;);if(a){for(e=&quot;&quot;,r=parseInt(a.substr(0,2),16),n=2;a.length-n;n+=2)i=parseInt(a.substr(n,2),16)^r,e+=String.fromCharCode(i);e=document.createTextNode(e),c.parentNode.replaceChild(e,c)}t.parentNode.removeChild(t);}}catch(u){}}()/* ]]&gt; */&lt;/script&gt;\nFormat settings, CABAC : Yes\nFormat settings, ReFrames : 4 frames\nCodec ID : V_MPEG4/ISO/AVC\nDuration : 27mn 28s\nBit rate : 9 116 Kbps\nWidth : 1 920 pixels\nHeight : 1 078 pixels\nDisplay aspect ratio : 16:9\nFrame rate mode : Constant\nFrame rate : 23.976 fps\nColor space : YUV\nChroma subsampling : 4:2:0\nBit depth : 8 bits\nScan type : Progressive\nBits/(Pixel*Frame) : 0.184\nStream size : 1.75 GiB (94%)\nWriting library : x264 core 148 r2579 73ae2d1\nEncoding settings : cabac=1 / ref=4 / deblock=1:-1:-1 / analyse=0x3:0x133 / me=umh / subme=10 / psy=1 / psy_rd=1.00:0.15 / mixed_ref=1 / me_range=36 / chroma_me=1 / trellis=2 / 8x8dct=1 / cqm=0 / deadzone=21,11 / fast_pskip=0 / chroma_qp_offset=-3 / threads=20 / lookahead_threads=3 / sliced_threads=0 / nr=0 / decimate=1 / interlaced=0 / bluray_compat=0 / constrained_intra=0 / bframes=8 / b_pyramid=2 / b_adapt=2 / b_bias=0 / direct=3 / weightb=1 / open_gop=0 / weightp=2 / keyint=250 / keyint_min=23 / scenecut=40 / intra_refresh=0 / rc_lookahead=60 / rc=crf / mbtree=1 / crf=19.0 / qcomp=0.60 / qpmin=0 / qpmax=69 / qpstep=4 / vbv_maxrate=25000 / vbv_bufsize=50000 / crf_max=0.0 / nal_hrd=none / filler=0 / ip_ratio=1.40 / aq=3:0.85\nDefault : Yes\nForced : No\nMatrix coefficients : BT.709\nDURATION : 00:27:28.105000000\nNUMBER_OF_FRAMES : 39513\nNUMBER_OF_BYTES : 1917374495\n_STATISTICS_WRITING_APP : mkvmerge v8.2.0 ('World of Adventure') 64bit\n_STATISTICS_WRITING_DATE_UTC : 2015-07-31 17:59:17\n_STATISTICS_TAGS : BPS DURATION NUMBER_OF_FRAMES NUMBER_OF_BYTES\n\nAudio\nID : 2\nFormat : AC-3\nFormat/Info : Audio Coding 3\nMode extension : CM (complete main)\nFormat settings, Endianness : Big\nCodec ID : A_AC3\nDuration : 27mn 28s\nBit rate mode : Constant\nBit rate : 384 Kbps\nChannel(s) : 6 channels\nChannel positions : Front: L C R, Side: L R, LFE\nSampling rate : 48.0 KHz\nBit depth : 16 bits\nCompression mode : Lossy\nStream size : 75.4 MiB (4%)\nDefault : Yes\nForced : No\nDURATION : 00:27:27.904000000\nNUMBER_OF_FRAMES : 51497\nNUMBER_OF_BYTES : 79099392\n_STATISTICS_WRITING_APP : mkvmerge v8.2.0 ('World of Adventure') 64bit\n_STATISTICS_WRITING_DATE_UTC : 2015-07-31 17:59:17\n_STATISTICS_TAGS : BPS DURATION NUMBER_OF_FRAMES NUMBER_OF_BYTES\n\nText\nID : 3\nFormat : UTF-8\nCodec ID : S_TEXT/UTF8\nCodec ID/Info : UTF-8 Plain Text\nDefault : No\nForced : No","torrent":{"xt":"urn:btih:d158f15456e6192d41c2941a93e3b9803f852aa2","amp;dn":"Ballers+S01E06+1080p+HDTV+DD5+1+x264-DTG","amp;tr":["udp%3A%2F%2Ftracker.openbittorrent.com%3A80","udp%3A%2F%2Fopen.demonii.com%3A1337","udp%3A%2F%2Ftracker.coppersurfer.tk%3A6969","udp%3A%2F%2Fexodus.desync.com%3A6969"],"infoHash":"d158f15456e6192d41c2941a93e3b9803f852aa2","infoHashBuffer":{"type":"Buffer","data":[209,88,241,84,86,230,25,45,65,194,148,26,147,227,185,128,63,133,42,162]},"announce":[],"urlList":[]}}